<svg id="visual" viewBox="0 0 900 600" width="900" height="600" xmlns="http://www.w3.org/2000/svg" xmlns:xlink="http://www.w3.org/1999/xlink" version="1.1"><rect x="0" y="0" width="900" height="600" fill="#000"></rect><path d="M554 600L375 600L375 514L420 514L420 429L471 429L471 343L496 343L496 257L562 257L562 171L419 171L419 86L496 86L496 0L900 0L900 86L900 86L900 171L900 171L900 257L900 257L900 343L900 343L900 429L900 429L900 514L900 514L900 600L900 600Z" fill="#ffffff"></path><path d="M592 600L658 600L658 514L621 514L621 429L604 429L604 343L655 343L655 257L544 257L544 171L695 171L695 86L576 86L576 0L900 0L900 86L900 86L900 171L900 171L900 257L900 257L900 343L900 343L900 429L900 429L900 514L900 514L900 600L900 600Z" fill="#e5e5e5"></path><path d="M667 600L781 600L781 514L695 514L695 429L700 429L700 343L753 343L753 257L769 257L769 171L676 171L676 86L732 86L732 0L900 0L900 86L900 86L900 171L900 171L900 257L900 257L900 343L900 343L900 429L900 429L900 514L900 514L900 600L900 600Z" fill="#cccccc"></path></svg>